<svg width="800" height="600" xmlns="http://www.w3.org/2000/svg">
<text x="400" y="30" text-anchor="middle" font-size="20" font-weight="bold">Project Categories (7 repos)</text>
<path d="M 400,300 L 400,100 A 200,200 0 0,1 556.3662964936059,175.30203962825328 Z" fill="#0066cc" stroke="white" stroke-width="2"/>
<rect x="600" y="50" width="15" height="15" fill="#0066cc"/>
<text x="620" y="62" font-size="12">Personal Sites: 1 (14.3%)</text>
<path d="M 400,300 L 556.3662964936059,175.30203962825328 A 200,200 0 0,1 486.77674782351164,480.1937735804838 Z" fill="#4da6ff" stroke="white" stroke-width="2"/>
<rect x="600" y="75" width="15" height="15" fill="#4da6ff"/>
<text x="620" y="87" font-size="12">Infrastructure: 2 (28.6%)</text>
<path d="M 400,300 L 486.77674782351164,480.1937735804838 A 200,200 0 0,1 313.2232521764885,480.1937735804839 Z" fill="#99ccff" stroke="white" stroke-width="2"/>
<rect x="600" y="100" width="15" height="15" fill="#99ccff"/>
<text x="620" y="112" font-size="12">MCP Servers: 1 (14.3%)</text>
<path d="M 400,300 L 313.2232521764885,480.1937735804839 A 200,200 0 0,1 243.63370350639403,175.30203962825334 Z" fill="#00994d" stroke="white" stroke-width="2"/>
<rect x="600" y="125" width="15" height="15" fill="#00994d"/>
<text x="620" y="137" font-size="12">Client Work: 2 (28.6%)</text>
<path d="M 400,300 L 243.63370350639403,175.30203962825334 A 200,200 0 0,1 399.99999999999994,100 Z" fill="#ffcc00" stroke="white" stroke-width="2"/>
<rect x="600" y="150" width="15" height="15" fill="#ffcc00"/>
<text x="620" y="162" font-size="12">Business Apps: 1 (14.3%)</text>
</svg>