<svg width="800" height="380" xmlns="http://www.w3.org/2000/svg">
<text x="400" y="30" text-anchor="middle" font-size="20" font-weight="bold">Top 10 Repositories by Commits</text>
<rect x="250" y="50" width="450" height="30" fill="#0066cc" stroke="#333" stroke-width="1"/>
<text x="240" y="70" text-anchor="end" font-size="14">jobs</text>
<text x="705" y="70" font-size="14" font-weight="bold">188</text>
<rect x="250" y="90" width="210.63829787234042" height="30" fill="#0066cc" stroke="#333" stroke-width="1"/>
<text x="240" y="110" text-anchor="end" font-size="14">~/.claude</text>
<text x="465.63829787234044" y="110" font-size="14" font-weight="bold">88</text>
<rect x="250" y="130" width="78.98936170212765" height="30" fill="#0066cc" stroke="#333" stroke-width="1"/>
<text x="240" y="150" text-anchor="end" font-size="14">ast-grep-mcp</text>
<text x="333.98936170212767" y="150" font-size="14" font-weight="bold">33</text>
<rect x="250" y="170" width="50.265957446808514" height="30" fill="#0066cc" stroke="#333" stroke-width="1"/>
<text x="240" y="190" text-anchor="end" font-size="14">integrity-demo-generator</text>
<text x="305.2659574468085" y="190" font-size="14" font-weight="bold">21</text>
<rect x="250" y="210" width="45.47872340425532" height="30" fill="#0066cc" stroke="#333" stroke-width="1"/>
<text x="240" y="230" text-anchor="end" font-size="14">personal-site</text>
<text x="300.47872340425533" y="230" font-size="14" font-weight="bold">19</text>
<rect x="250" y="250" width="35.90425531914894" height="30" fill="#0066cc" stroke="#333" stroke-width="1"/>
<text x="240" y="270" text-anchor="end" font-size="14">~/dotfiles</text>
<text x="290.90425531914894" y="270" font-size="14" font-weight="bold">15</text>
<rect x="250" y="290" width="7.180851063829787" height="30" fill="#0066cc" stroke="#333" stroke-width="1"/>
<text x="240" y="310" text-anchor="end" font-size="14">inventory-ai</text>
<text x="262.1808510638298" y="310" font-size="14" font-weight="bold">3</text>
</svg>