<svg width="800" height="460" xmlns="http://www.w3.org/2000/svg">
<text x="400.0" y="30" text-anchor="middle" font-size="20" font-weight="bold">Top 10 Repositories by Commits</text>
<rect x="250" y="50" width="450.0" height="30" fill="#0066cc" stroke="#333" stroke-width="1"/>
<text x="240" y="70.0" text-anchor="end" font-size="14">~/.claude</text>
<text x="705.0" y="70.0" font-size="14" font-weight="bold">196</text>
<rect x="250" y="90" width="229.59183673469389" height="30" fill="#0066cc" stroke="#333" stroke-width="1"/>
<text x="240" y="110.0" text-anchor="end" font-size="14">~/reports</text>
<text x="484.59183673469386" y="110.0" font-size="14" font-weight="bold">100</text>
<rect x="250" y="130" width="133.16326530612244" height="30" fill="#0066cc" stroke="#333" stroke-width="1"/>
<text x="240" y="150.0" text-anchor="end" font-size="14">jobs</text>
<text x="388.1632653061224" y="150.0" font-size="14" font-weight="bold">58</text>
<rect x="250" y="170" width="43.62244897959184" height="30" fill="#0066cc" stroke="#333" stroke-width="1"/>
<text x="240" y="190.0" text-anchor="end" font-size="14">PersonalSite</text>
<text x="298.6224489795918" y="190.0" font-size="14" font-weight="bold">19</text>
<rect x="250" y="210" width="32.142857142857146" height="30" fill="#0066cc" stroke="#333" stroke-width="1"/>
<text x="240" y="230.0" text-anchor="end" font-size="14">ISPublicSites/IntegrityStudio.ai2</text>
<text x="287.14285714285717" y="230.0" font-size="14" font-weight="bold">14</text>
<rect x="250" y="250" width="11.479591836734693" height="30" fill="#0066cc" stroke="#333" stroke-width="1"/>
<text x="240" y="270.0" text-anchor="end" font-size="14">ISPublicSites/AnalyticsBot</text>
<text x="266.4795918367347" y="270.0" font-size="14" font-weight="bold">5</text>
<rect x="250" y="290" width="9.183673469387756" height="30" fill="#0066cc" stroke="#333" stroke-width="1"/>
<text x="240" y="310.0" text-anchor="end" font-size="14">ast-grep-mcp</text>
<text x="264.18367346938777" y="310.0" font-size="14" font-weight="bold">4</text>
<rect x="250" y="330" width="4.591836734693878" height="30" fill="#0066cc" stroke="#333" stroke-width="1"/>
<text x="240" y="350.0" text-anchor="end" font-size="14">ISPublicSites/tcad-scraper</text>
<text x="259.59183673469386" y="350.0" font-size="14" font-weight="bold">2</text>
<rect x="250" y="370" width="2.295918367346939" height="30" fill="#0066cc" stroke="#333" stroke-width="1"/>
<text x="240" y="390.0" text-anchor="end" font-size="14">john_skelton</text>
<text x="257.2959183673469" y="390.0" font-size="14" font-weight="bold">1</text>
</svg>