<svg width="800" height="500" xmlns="http://www.w3.org/2000/svg">
<text x="400.0" y="30" text-anchor="middle" font-size="20" font-weight="bold">Top 10 Repositories by Commits</text>
<rect x="250" y="50" width="450.0" height="30" fill="#0066cc" stroke="#333" stroke-width="1"/>
<text x="240" y="70.0" text-anchor="end" font-size="14">~/.claude</text>
<text x="705.0" y="70.0" font-size="14" font-weight="bold">403</text>
<rect x="250" y="90" width="292.5558312655087" height="30" fill="#0066cc" stroke="#333" stroke-width="1"/>
<text x="240" y="110.0" text-anchor="end" font-size="14">ISPublicSites/IntegrityStudio.ai2</text>
<text x="547.5558312655087" y="110.0" font-size="14" font-weight="bold">262</text>
<rect x="250" y="130" width="211.0421836228288" height="30" fill="#0066cc" stroke="#333" stroke-width="1"/>
<text x="240" y="150.0" text-anchor="end" font-size="14">PersonalSite</text>
<text x="466.0421836228288" y="150.0" font-size="14" font-weight="bold">189</text>
<rect x="250" y="170" width="196.5260545905707" height="30" fill="#0066cc" stroke="#333" stroke-width="1"/>
<text x="240" y="190.0" text-anchor="end" font-size="14">ISPublicSites/AlephAuto</text>
<text x="451.5260545905707" y="190.0" font-size="14" font-weight="bold">176</text>
<rect x="250" y="210" width="175.31017369727047" height="30" fill="#0066cc" stroke="#333" stroke-width="1"/>
<text x="240" y="230.0" text-anchor="end" font-size="14">jobs</text>
<text x="430.31017369727044" y="230.0" font-size="14" font-weight="bold">157</text>
<rect x="250" y="250" width="51.364764267990076" height="30" fill="#0066cc" stroke="#333" stroke-width="1"/>
<text x="240" y="270.0" text-anchor="end" font-size="14">ISPublicSites/SingleSiteScraper</text>
<text x="306.3647642679901" y="270.0" font-size="14" font-weight="bold">46</text>
<rect x="250" y="290" width="46.898263027295286" height="30" fill="#0066cc" stroke="#333" stroke-width="1"/>
<text x="240" y="310.0" text-anchor="end" font-size="14">ISPublicSites/AnalyticsBot</text>
<text x="301.8982630272953" y="310.0" font-size="14" font-weight="bold">42</text>
<rect x="250" y="330" width="31.265508684863523" height="30" fill="#0066cc" stroke="#333" stroke-width="1"/>
<text x="240" y="350.0" text-anchor="end" font-size="14">isabel_budenz/PersonalSite</text>
<text x="286.2655086848635" y="350.0" font-size="14" font-weight="bold">28</text>
<rect x="250" y="370" width="30.148883374689827" height="30" fill="#0066cc" stroke="#333" stroke-width="1"/>
<text x="240" y="390.0" text-anchor="end" font-size="14">ast-grep-mcp</text>
<text x="285.14888337468983" y="390.0" font-size="14" font-weight="bold">27</text>
<rect x="250" y="410" width="22.332506203473944" height="30" fill="#0066cc" stroke="#333" stroke-width="1"/>
<text x="240" y="430.0" text-anchor="end" font-size="14">~/claude-tool-use</text>
<text x="277.33250620347394" y="430.0" font-size="14" font-weight="bold">20</text>
</svg>