<svg width="900" height="600" xmlns="http://www.w3.org/2000/svg">
<text x="450.0" y="30" text-anchor="middle" font-size="20" font-weight="bold">File Changes by Language (1032 total)</text>
<path d="M 450.0,300.0 L 450.0,100.0 A 200.0,200.0 0 0,1 486.3273701958873,103.32686463410676 Z" fill="#0066cc" stroke="white" stroke-width="2"/>
<rect x="700" y="50" width="15" height="15" fill="#0066cc"/>
<text x="720" y="62" font-size="12">HTML: 30 (2.9%)</text>
<path d="M 450.0,300.0 L 486.3273701958873,103.32686463410676 A 200.0,200.0 0 0,1 595.6602877623832,437.05137930345586 Z" fill="#4da6ff" stroke="white" stroke-width="2"/>
<rect x="700" y="75" width="15" height="15" fill="#4da6ff"/>
<text x="720" y="87" font-size="12">Markdown: 352 (34.1%)</text>
<path d="M 450.0,300.0 L 595.6602877623832,437.05137930345586 A 200.0,200.0 0 0,1 592.2797536406356,440.55771662900634 Z" fill="#99ccff" stroke="white" stroke-width="2"/>
<rect x="700" y="100" width="15" height="15" fill="#99ccff"/>
<text x="720" y="112" font-size="12">SVG: 4 (0.4%)</text>
<path d="M 450.0,300.0 L 592.2797536406356,440.55771662900634 A 200.0,200.0 0 0,1 588.8148390441268,443.9806947515991 Z" fill="#00994d" stroke="white" stroke-width="2"/>
<rect x="700" y="125" width="15" height="15" fill="#00994d"/>
<text x="720" y="137" font-size="12">Text Files: 4 (0.4%)</text>
<path d="M 450.0,300.0 L 588.8148390441268,443.9806947515991 A 200.0,200.0 0 0,1 571.2687005032714,459.04056802667634 Z" fill="#ffcc00" stroke="white" stroke-width="2"/>
<rect x="700" y="150" width="15" height="15" fill="#ffcc00"/>
<text x="720" y="162" font-size="12">CSS/SCSS: 19 (1.8%)</text>
<path d="M 450.0,300.0 L 571.2687005032714,459.04056802667634 A 200.0,200.0 0 0,1 557.2887040768212,468.7872447121414 Z" fill="#ff6600" stroke="white" stroke-width="2"/>
<rect x="700" y="175" width="15" height="15" fill="#ff6600"/>
<text x="720" y="187" font-size="12">Shell: 14 (1.4%)</text>
<path d="M 450.0,300.0 L 557.2887040768212,468.7872447121414 A 200.0,200.0 0 0,1 504.11227420145156,492.54054580982915 Z" fill="#cc0000" stroke="white" stroke-width="2"/>
<rect x="700" y="200" width="15" height="15" fill="#cc0000"/>
<text x="720" y="212" font-size="12">JSON: 48 (4.7%)</text>
<path d="M 450.0,300.0 L 504.11227420145156,492.54054580982915 A 200.0,200.0 0 0,1 468.2396947181327,499.16654723268493 Z" fill="#9966cc" stroke="white" stroke-width="2"/>
<rect x="700" y="225" width="15" height="15" fill="#9966cc"/>
<text x="720" y="237" font-size="12">YAML: 30 (2.9%)</text>
<path d="M 450.0,300.0 L 468.2396947181327,499.16654723268493 A 200.0,200.0 0 0,1 385.4239190457108,489.28795463152187 Z" fill="#66cc99" stroke="white" stroke-width="2"/>
<rect x="700" y="250" width="15" height="15" fill="#66cc99"/>
<text x="720" y="262" font-size="12">Python: 69 (6.7%)</text>
<path d="M 450.0,300.0 L 385.4239190457108,489.28795463152187 A 200.0,200.0 0 0,1 338.63296797857845,133.8753956250319 Z" fill="#ff6699" stroke="white" stroke-width="2"/>
<rect x="700" y="275" width="15" height="15" fill="#ff6699"/>
<text x="720" y="287" font-size="12">Data Files: 365 (35.4%)</text>
<path d="M 450.0,300.0 L 338.63296797857845,133.8753956250319 A 200.0,200.0 0 0,1 348.9473254001741,127.40696144913116 Z" fill="#0066cc" stroke="white" stroke-width="2"/>
<rect x="700" y="300" width="15" height="15" fill="#0066cc"/>
<text x="720" y="312" font-size="12">Other: 10 (1.0%)</text>
<path d="M 450.0,300.0 L 348.9473254001741,127.40696144913116 A 200.0,200.0 0 0,1 351.0563813985134,126.18929740075396 Z" fill="#4da6ff" stroke="white" stroke-width="2"/>
<rect x="700" y="325" width="15" height="15" fill="#4da6ff"/>
<text x="720" y="337" font-size="12">Lock Files: 2 (0.2%)</text>
<path d="M 450.0,300.0 L 351.0563813985134,126.18929740075396 A 200.0,200.0 0 0,1 437.8308056897972,100.37056652427097 Z" fill="#99ccff" stroke="white" stroke-width="2"/>
<rect x="700" y="350" width="15" height="15" fill="#99ccff"/>
<text x="720" y="362" font-size="12">JavaScript: 75 (7.3%)</text>
<path d="M 450.0,300.0 L 437.8308056897972,100.37056652427097 A 200.0,200.0 0 0,1 439.04643915427124,100.30017650283486 Z" fill="#00994d" stroke="white" stroke-width="2"/>
<rect x="700" y="375" width="15" height="15" fill="#00994d"/>
<text x="720" y="387" font-size="12">SQL: 1 (0.1%)</text>
<path d="M 450.0,300.0 L 439.04643915427124,100.30017650283486 A 200.0,200.0 0 0,1 449.99999999999994,100.0 Z" fill="#ffcc00" stroke="white" stroke-width="2"/>
<rect x="700" y="400" width="15" height="15" fill="#ffcc00"/>
<text x="720" y="412" font-size="12">Go: 9 (0.9%)</text>
</svg>