<svg width="900" height="600" xmlns="http://www.w3.org/2000/svg">
<text x="450.0" y="30" text-anchor="middle" font-size="20" font-weight="bold">File Changes by Language (1885 total)</text>
<path d="M 450.0,300.0 L 450.0,100.0 A 200.0,200.0 0 0,1 621.6286703105363,402.6820311809093 Z" fill="#0066cc" stroke="white" stroke-width="2"/>
<rect x="700" y="50" width="15" height="15" fill="#0066cc"/>
<text x="720" y="62" font-size="12">Python: 633 (33.6%)</text>
<path d="M 450.0,300.0 L 621.6286703105363,402.6820311809093 A 200.0,200.0 0 0,1 618.1113143908738,408.3447551742715 Z" fill="#4da6ff" stroke="white" stroke-width="2"/>
<rect x="700" y="75" width="15" height="15" fill="#4da6ff"/>
<text x="720" y="87" font-size="12">Text Files: 10 (0.5%)</text>
<path d="M 450.0,300.0 L 618.1113143908738,408.3447551742715 A 200.0,200.0 0 0,1 254.49844700257,342.17988591251844 Z" fill="#99ccff" stroke="white" stroke-width="2"/>
<rect x="700" y="100" width="15" height="15" fill="#99ccff"/>
<text x="720" y="112" font-size="12">Markdown: 707 (37.5%)</text>
<path d="M 450.0,300.0 L 254.49844700257,342.17988591251844 A 200.0,200.0 0 0,1 250.7079513430197,283.1869294266696 Z" fill="#00994d" stroke="white" stroke-width="2"/>
<rect x="700" y="125" width="15" height="15" fill="#00994d"/>
<text x="720" y="137" font-size="12">JSON: 89 (4.7%)</text>
<path d="M 450.0,300.0 L 250.7079513430197,283.1869294266696 A 200.0,200.0 0 0,1 251.08403762053484,279.2048103963633 Z" fill="#ffcc00" stroke="white" stroke-width="2"/>
<rect x="700" y="150" width="15" height="15" fill="#ffcc00"/>
<text x="720" y="162" font-size="12">Data Files: 6 (0.3%)</text>
<path d="M 450.0,300.0 L 251.08403762053484,279.2048103963633 A 200.0,200.0 0 0,1 254.01967527822038,260.1037304758225 Z" fill="#ff6600" stroke="white" stroke-width="2"/>
<rect x="700" y="175" width="15" height="15" fill="#ff6600"/>
<text x="720" y="187" font-size="12">CSS/SCSS: 29 (1.5%)</text>
<path d="M 450.0,300.0 L 254.01967527822038,260.1037304758225 A 200.0,200.0 0 0,1 364.211300519323,119.33373574069205 Z" fill="#cc0000" stroke="white" stroke-width="2"/>
<rect x="700" y="200" width="15" height="15" fill="#cc0000"/>
<text x="720" y="212" font-size="12">JavaScript: 278 (14.7%)</text>
<path d="M 450.0,300.0 L 364.211300519323,119.33373574069205 A 200.0,200.0 0 0,1 369.6689480567813,116.84181128408181 Z" fill="#9966cc" stroke="white" stroke-width="2"/>
<rect x="700" y="225" width="15" height="15" fill="#9966cc"/>
<text x="720" y="237" font-size="12">YAML: 9 (0.5%)</text>
<path d="M 450.0,300.0 L 369.6689480567813,116.84181128408181 A 200.0,200.0 0 0,1 371.5044726003756,116.0476904786058 Z" fill="#66cc99" stroke="white" stroke-width="2"/>
<rect x="700" y="250" width="15" height="15" fill="#66cc99"/>
<text x="720" y="262" font-size="12">SVG: 3 (0.2%)</text>
<path d="M 450.0,300.0 L 371.5044726003756,116.0476904786058 A 200.0,200.0 0 0,1 391.5345135831753,108.73634193071575 Z" fill="#ff6699" stroke="white" stroke-width="2"/>
<rect x="700" y="275" width="15" height="15" fill="#ff6699"/>
<text x="720" y="287" font-size="12">HTML: 32 (1.7%)</text>
<path d="M 450.0,300.0 L 391.5345135831753,108.73634193071575 A 200.0,200.0 0 0,1 407.6572146287174,104.53366395463004 Z" fill="#0066cc" stroke="white" stroke-width="2"/>
<rect x="700" y="300" width="15" height="15" fill="#0066cc"/>
<text x="720" y="312" font-size="12">Other: 25 (1.3%)</text>
<path d="M 450.0,300.0 L 407.6572146287174,104.53366395463004 A 200.0,200.0 0 0,1 409.61391638677577,104.1200259077369 Z" fill="#4da6ff" stroke="white" stroke-width="2"/>
<rect x="700" y="325" width="15" height="15" fill="#4da6ff"/>
<text x="720" y="337" font-size="12">Images: 3 (0.2%)</text>
<path d="M 450.0,300.0 L 409.61391638677577,104.1200259077369 A 200.0,200.0 0 0,1 410.26705739889917,103.98649721955982 Z" fill="#99ccff" stroke="white" stroke-width="2"/>
<rect x="700" y="350" width="15" height="15" fill="#99ccff"/>
<text x="720" y="362" font-size="12">Ruby: 1 (0.1%)</text>
<path d="M 450.0,300.0 L 410.26705739889917,103.98649721955982 A 200.0,200.0 0 0,1 416.82154786470085,102.77122341325122 Z" fill="#00994d" stroke="white" stroke-width="2"/>
<rect x="700" y="375" width="15" height="15" fill="#00994d"/>
<text x="720" y="387" font-size="12">Shell: 10 (0.5%)</text>
<path d="M 450.0,300.0 L 416.82154786470085,102.77122341325122 A 200.0,200.0 0 0,1 417.47914473042096,102.66172704582851 Z" fill="#ffcc00" stroke="white" stroke-width="2"/>
<rect x="700" y="400" width="15" height="15" fill="#ffcc00"/>
<text x="720" y="412" font-size="12">Lock Files: 1 (0.1%)</text>
<path d="M 450.0,300.0 L 417.47914473042096,102.66172704582851 A 200.0,200.0 0 0,1 450.0000000000001,100.0 Z" fill="#ff6600" stroke="white" stroke-width="2"/>
<rect x="700" y="425" width="15" height="15" fill="#ff6600"/>
<text x="720" y="437" font-size="12">TypeScript: 49 (2.6%)</text>
</svg>