<svg width="800" height="500" xmlns="http://www.w3.org/2000/svg">
<text x="400.0" y="30" text-anchor="middle" font-size="20" font-weight="bold">Top 10 Repositories by Commits</text>
<rect x="250" y="50" width="450.0" height="30" fill="#0066cc" stroke="#333" stroke-width="1"/>
<text x="240" y="70.0" text-anchor="end" font-size="14">PersonalSite</text>
<text x="705.0" y="70.0" font-size="14" font-weight="bold">227</text>
<rect x="250" y="90" width="382.59911894273125" height="30" fill="#0066cc" stroke="#333" stroke-width="1"/>
<text x="240" y="110.0" text-anchor="end" font-size="14">ISPublicSites/tcad-scraper</text>
<text x="637.5991189427313" y="110.0" font-size="14" font-weight="bold">193</text>
<rect x="250" y="130" width="311.23348017621146" height="30" fill="#0066cc" stroke="#333" stroke-width="1"/>
<text x="240" y="150.0" text-anchor="end" font-size="14">ISPublicSites/AnalyticsBot</text>
<text x="566.2334801762115" y="150.0" font-size="14" font-weight="bold">157</text>
<rect x="250" y="170" width="120.9251101321586" height="30" fill="#0066cc" stroke="#333" stroke-width="1"/>
<text x="240" y="190.0" text-anchor="end" font-size="14">ISPublicSites/IntegrityStudio.ai</text>
<text x="375.9251101321586" y="190.0" font-size="14" font-weight="bold">61</text>
<rect x="250" y="210" width="114.97797356828194" height="30" fill="#0066cc" stroke="#333" stroke-width="1"/>
<text x="240" y="230.0" text-anchor="end" font-size="14">ISInternal/mcp-server-cloudflare</text>
<text x="369.9779735682819" y="230.0" font-size="14" font-weight="bold">58</text>
<rect x="250" y="250" width="105.06607929515418" height="30" fill="#0066cc" stroke="#333" stroke-width="1"/>
<text x="240" y="270.0" text-anchor="end" font-size="14">ISPublicSites/SingleSiteScraper</text>
<text x="360.06607929515417" y="270.0" font-size="14" font-weight="bold">53</text>
<rect x="250" y="290" width="89.20704845814979" height="30" fill="#0066cc" stroke="#333" stroke-width="1"/>
<text x="240" y="310.0" text-anchor="end" font-size="14">IntegrityStudioClients/Leora</text>
<text x="344.20704845814976" y="310.0" font-size="14" font-weight="bold">45</text>
<rect x="250" y="330" width="71.36563876651982" height="30" fill="#0066cc" stroke="#333" stroke-width="1"/>
<text x="240" y="350.0" text-anchor="end" font-size="14">ISPublicSites/ToolVisualizer</text>
<text x="326.36563876651985" y="350.0" font-size="14" font-weight="bold">36</text>
<rect x="250" y="370" width="65.41850220264317" height="30" fill="#0066cc" stroke="#333" stroke-width="1"/>
<text x="240" y="390.0" text-anchor="end" font-size="14">ToolVizualizer</text>
<text x="320.41850220264314" y="390.0" font-size="14" font-weight="bold">33</text>
<rect x="250" y="410" width="53.52422907488987" height="30" fill="#0066cc" stroke="#333" stroke-width="1"/>
<text x="240" y="430.0" text-anchor="end" font-size="14">jobs</text>
<text x="308.5242290748899" y="430.0" font-size="14" font-weight="bold">27</text>
</svg>